<svg xmlns:xlink="http://www.w3.org/1999/xlink" xmlns="http://www.w3.org/2000/svg" width="342.878" height="95.8" viewBox="0 0 342.878 95.8">
  <g id="Group_5698" data-name="Group 5698" transform="translate(-3661.848 -803.6)">
    <g id="Group_5695" data-name="Group 5695">
      <g id="Group_5694" data-name="Group 5694">
        <g id="Group_1619" data-name="Group 1619" transform="translate(3661.848 803.6)">
          <path id="Path_2272" data-name="Path 2272" d="M335.891,372H200.181a10.43,10.43,0,0,1-10.224-12.5l15.176-74.939a10.431,10.431,0,0,1,10.222-8.36H351.7a10.43,10.43,0,0,1,10.206,12.585L346.09,363.728A10.431,10.431,0,0,1,335.891,372Z" transform="translate(-189.749 -276.202)" fill="#0c9aff" style="isolation: isolate"/>
          <g id="Group_1619-2" data-name="Group 1619" transform="translate(24.938 27.275)" style="isolation: isolate">
            <path id="Path_2202" data-name="Path 2202" d="M259.178,238.621h7.909v29.286h-7.911v-2.992a12.257,12.257,0,0,1-9.029,3.742,13.577,13.577,0,0,1-10.368-4.438,15.842,15.842,0,0,1-4.063-11.116,15.264,15.264,0,0,1,4.117-10.9,13.636,13.636,0,0,1,10.315-4.327,12.156,12.156,0,0,1,9.03,3.85Zm-12.987,20.146a7.129,7.129,0,0,0,5.4,2.247,6.994,6.994,0,0,0,5.4-2.3,7.807,7.807,0,0,0,2.191-5.505,7.6,7.6,0,0,0-12.987-5.452,7.729,7.729,0,0,0-2.083,5.452A7.974,7.974,0,0,0,246.192,258.767Z" transform="translate(-235.708 -227.237)" fill="#fff"/>
            <path id="Path_2203" data-name="Path 2203" d="M269.166,274.552l-9.253-12.131-1.652,1.55v10.574h-8.388V233.889h8.388v20.734l9.834-9.35h10.368l-12.826,11.918,13.69,17.362Z" transform="translate(-212.035 -233.889)" fill="#fff"/>
            <path id="Path_2204" data-name="Path 2204" d="M270.2,267.436h-8.392V238.15H270.2Z" transform="translate(-192.077 -226.766)" fill="#fff"/>
            <path id="Path_2205" data-name="Path 2205" d="M275.765,274.552h-8.392V233.889h8.392Z" transform="translate(-182.783 -233.889)" fill="#fff"/>
            <path id="Path_2206" data-name="Path 2206" d="M281.3,274.552h-8.392V233.889H281.3Z" transform="translate(-173.522 -233.889)" fill="#fff"/>
            <path id="Path_2207" data-name="Path 2207" d="M286.841,267.436h-8.388V238.15h8.388Z" transform="translate(-164.263 -226.766)" fill="#fff"/>
          </g>
          <path id="Path_2274" data-name="Path 2274" d="M22.844-14a12.36,12.36,0,0,0-8.036,2.855l.264-2.115H5.866L-.32,27.927H9.038l2.168-15.016a10.191,10.191,0,0,0,8.354,3.754,14.594,14.594,0,0,0,10.627-4.23A18.082,18.082,0,0,0,35.368,1.491a13.793,13.793,0,0,0-2.809-11.1A12.038,12.038,0,0,0,22.844-14ZM25.805,1.6a7.559,7.559,0,0,1-7.4,6.5c-3.965,0-6.345-3.119-5.71-7.138a7.513,7.513,0,0,1,7.4-6.444,5.262,5.262,0,0,1,4.6,2.168A6.174,6.174,0,0,1,25.8,1.6Zm21.3,14.328,2.062-14.17c.687-4.653,3.437-7.3,6.979-7.3,3.119,0,4.706,2.009,4.131,5.763l-2.333,15.7H67.3L69.894-1.311c.634-4.177,0-7.3-1.9-9.464a9.431,9.431,0,0,0-7.508-3.278,12.263,12.263,0,0,0-9.94,4.811l2.379-15.174H43.775L37.8,15.925Zm40.394.793a17.856,17.856,0,0,0,11.209-3.8A16.765,16.765,0,0,0,105,2.872a13.653,13.653,0,0,0-2.273-12A13.259,13.259,0,0,0,91.465-14.1,17.6,17.6,0,0,0,79.781-9.923,17.378,17.378,0,0,0,73.648.7,13.458,13.458,0,0,0,76.4,12.072,13.6,13.6,0,0,0,87.5,16.718Zm.846-8.777a5.315,5.315,0,0,1-4.494-2.062A5.822,5.822,0,0,1,82.953.8a7.777,7.777,0,0,1,7.508-6.193A5.386,5.386,0,0,1,94.9-3.38a5.586,5.586,0,0,1,1,4.811,7.364,7.364,0,0,1-2.644,4.6,7.186,7.186,0,0,1-4.917,1.91ZM117,15.925l2.062-14.17c.687-4.653,3.437-7.3,6.979-7.3,3.119,0,4.706,2.009,4.131,5.763l-2.333,15.7H137.2L139.79-1.311c.634-4.177,0-7.3-1.9-9.464a9.431,9.431,0,0,0-7.508-3.278,11.909,11.909,0,0,0-9.834,4.811l.634-4.018h-9.147L107.7,15.925ZM161.1-14a17.572,17.572,0,0,0-11.691,4.071A16.668,16.668,0,0,0,143.7.857c-1.375,8.2,3.437,15.7,14.223,15.7a23.792,23.792,0,0,0,13.165-3.86l-3.067-6.549a17.413,17.413,0,0,1-9.358,2.809c-3.648,0-5.71-1.533-6.239-4.6h21.043a19.356,19.356,0,0,0,.793-3.331,12.6,12.6,0,0,0-2.749-10.944A13.5,13.5,0,0,0,161.1-14Zm-.37,7.455A4.687,4.687,0,0,1,164.257-5.4a4.687,4.687,0,0,1,1.593,3.351H153.537a7.344,7.344,0,0,1,7.191-4.494Z" transform="translate(168.316 52.408)" fill="#404040"/>
        </g>
      </g>
      <path id="Path_12516" data-name="Path 12516" d="M.064-9.008l.88,1.1L3.088-9.7V0H4.672V-11.824H3.408ZM17.488-.784A1.015,1.015,0,0,0,18.512.256a1.015,1.015,0,0,0,1.024-1.04.994.994,0,0,0-1.024-.992A.994.994,0,0,0,17.488-.784ZM23.9-2.144,21.248-8.576H19.472L23.2-.032,22.88.72c-.432,1.008-.992,1.5-1.7,1.5a2.651,2.651,0,0,1-1.04-.256l-.192,1.344a2.578,2.578,0,0,0,1.376.336c1.344,0,2.256-.768,2.976-2.688l3.6-9.536h-1.7Zm6.96-6.432H29.328V0h1.536Zm3.92-3.536H33.248V0h1.536Z" transform="translate(3963 893)" fill="#a8a8a8"/>
      <path id="Path_12518" data-name="Path 12518" d="M.064-9.008l.88,1.1L3.088-9.7V0H4.672V-11.824H3.408ZM17.488-.784A1.015,1.015,0,0,0,18.512.256a1.015,1.015,0,0,0,1.024-1.04.994.994,0,0,0-1.024-.992A.994.994,0,0,0,17.488-.784ZM23.9-2.144,21.248-8.576H19.472L23.2-.032,22.88.72c-.432,1.008-.992,1.5-1.7,1.5a2.651,2.651,0,0,1-1.04-.256l-.192,1.344a2.578,2.578,0,0,0,1.376.336c1.344,0,2.256-.768,2.976-2.688l3.6-9.536h-1.7Zm6.96-6.432H29.328V0h1.536Zm3.92-3.536H33.248V0h1.536Z" transform="translate(3963 893)" fill="#a8a8a8"/>
    </g>
    <path id="Path_12519" data-name="Path 12519" d="M.064-9.008l.88,1.1L3.088-9.7V0H4.672V-11.824H3.408Z" transform="translate(3971 893)" fill="#a8a8a8"/>
  </g>
</svg>