<svg xmlns="http://www.w3.org/2000/svg" width="32.739" height="33.738" viewBox="0 0 32.739 33.738"><g transform="translate(-1479.631 -239.131)"><g transform="translate(1475.142 238.693)"><path d="M33.205,192.917c-13.925,6.627-22.567,1.082-28.1-2.285-.342-.212-.924.05-.419.629,1.843,2.235,7.883,7.621,15.767,7.621s12.583-4.3,13.17-5.056.171-1.155-.418-.909Zm3.911-2.16c-.374-.487-2.274-.578-3.47-.431s-3,.875-2.839,1.314c.08.165.244.091,1.067.017s3.136-.374,3.617.256-.737,3.653-.96,4.14.082.613.487.288a6.316,6.316,0,0,0,1.606-2.352c.482-1.195.775-2.861.491-3.232Z" transform="translate(0 -164.706)" fill="#f90"/><path d="M64.506,14.688a8.73,8.73,0,0,1-.835,4.733,3.619,3.619,0,0,1-3.089,2.028c-1.714,0-2.712-1.306-2.712-3.233,0-3.8,3.409-4.495,6.636-4.495Zm4.5,10.879a.932.932,0,0,1-1.055.107A10.987,10.987,0,0,1,65.391,22.7c-2.448,2.5-4.181,3.246-7.357,3.246-3.754,0-6.68-2.316-6.68-6.956a7.584,7.584,0,0,1,4.758-7.295c2.423-1.067,5.807-1.256,8.393-1.551V9.566a5.743,5.743,0,0,0-.54-3.233,2.987,2.987,0,0,0-2.5-1.161A3.4,3.4,0,0,0,57.87,7.852a.934.934,0,0,1-.772.816L52.766,8.2a.791.791,0,0,1-.665-.936c1-5.248,5.738-6.83,9.981-6.83,2.172,0,5.01.578,6.723,2.222,2.172,2.028,1.965,4.733,1.965,7.678v6.956a6.1,6.1,0,0,0,1.682,4.137.838.838,0,0,1-.013,1.186c-.91.76-2.53,2.172-3.421,2.963l-.013-.013" transform="translate(-40.664)" fill-rule="evenodd"/><path d="M33.205,192.917c-13.925,6.627-22.567,1.082-28.1-2.285-.342-.212-.924.05-.419.629,1.843,2.235,7.883,7.621,15.767,7.621s12.583-4.3,13.17-5.056.171-1.155-.418-.909Zm3.911-2.16c-.374-.487-2.274-.578-3.47-.431s-3,.875-2.839,1.314c.08.165.244.091,1.067.017s3.136-.374,3.617.256-.737,3.653-.96,4.14.082.613.487.288a6.316,6.316,0,0,0,1.606-2.352c.482-1.195.775-2.861.491-3.232Z" transform="translate(0 -164.706)" fill="#f90"/><path d="M64.506,14.688a8.73,8.73,0,0,1-.835,4.733,3.619,3.619,0,0,1-3.089,2.028c-1.714,0-2.712-1.306-2.712-3.233,0-3.8,3.409-4.495,6.636-4.495Zm4.5,10.879a.932.932,0,0,1-1.055.107A10.987,10.987,0,0,1,65.391,22.7c-2.448,2.5-4.181,3.246-7.357,3.246-3.754,0-6.68-2.316-6.68-6.956a7.584,7.584,0,0,1,4.758-7.295c2.423-1.067,5.807-1.256,8.393-1.551V9.566a5.743,5.743,0,0,0-.54-3.233,2.987,2.987,0,0,0-2.5-1.161A3.4,3.4,0,0,0,57.87,7.852a.934.934,0,0,1-.772.816L52.766,8.2a.791.791,0,0,1-.665-.936c1-5.248,5.738-6.83,9.981-6.83,2.172,0,5.01.578,6.723,2.222,2.172,2.028,1.965,4.733,1.965,7.678v6.956a6.1,6.1,0,0,0,1.682,4.137.838.838,0,0,1-.013,1.186c-.91.76-2.53,2.172-3.421,2.963l-.013-.013" transform="translate(-40.664)" fill-rule="evenodd"/></g></g></svg>