<svg xmlns="http://www.w3.org/2000/svg" width="23.198" height="23.198" viewBox="0 0 23.198 23.198"><g transform="translate(-1350 -147.901)"><g transform="translate(1350 147.901)"><path d="M0,0H23.2V23.2H0Z" fill="none"/><path d="M17.532,2H5.933A1.933,1.933,0,0,0,4,3.933V17.465H5.933V3.933h11.6Zm2.9,3.866H9.8A1.933,1.933,0,0,0,7.866,7.8V21.332A1.933,1.933,0,0,0,9.8,23.265H20.432a1.933,1.933,0,0,0,1.933-1.933V7.8A1.933,1.933,0,0,0,20.432,5.866Zm0,15.465H9.8V7.8H20.432Z" transform="translate(-2.067 -1.033)" fill="#fea803"/></g></g></svg>