<svg xmlns="http://www.w3.org/2000/svg" width="32" height="32" viewBox="0 0 32 32"><g transform="translate(-20.333 -10.667)"><g transform="translate(20 10.667)"><rect width="32" height="32" transform="translate(0.333 0)" fill="none"/><path d="M303.067-302.867H302V-305h-2.133v2.133h-8.533V-305H289.2v2.133h-1.067a2.124,2.124,0,0,0-2.123,2.133L286-285.8a2.133,2.133,0,0,0,2.133,2.133h14.933A2.14,2.14,0,0,0,305.2-285.8v-14.933a2.14,2.14,0,0,0-2.133-2.133Zm0,17.067H288.133v-11.733h14.933V-285.8Zm-12.8-9.6H295.6v5.333h-5.333Z" transform="translate(-279.6 310.335)" fill="#d9d9d9" fill-rule="evenodd"/></g></g></svg>