<svg xmlns="http://www.w3.org/2000/svg" width="17.595" height="22.273" viewBox="0 0 17.595 22.273"><g transform="translate(-1239.652 -148)"><path d="M28.245,11.167h-5.09a2.317,2.317,0,0,0-4.634,0H13.43a1.39,1.39,0,1,0,0,2.78l.787,14.969a2.317,2.317,0,0,0,2.31,2.207h8.6a2.317,2.317,0,0,0,2.31-2.207l.809-14.94a1.39,1.39,0,0,0,0-2.78ZM19.418,26.445a.927.927,0,0,1-1.854,0V17.214a.927.927,0,0,1,1.854,0Zm4.627,0a.927.927,0,1,1-1.846,0V17.214a.927.927,0,0,1,1.846,0Z" transform="translate(1227.612 139.15)" fill="#ff5353"/></g></svg>