<svg xmlns="http://www.w3.org/2000/svg" width="40" height="40" viewBox="0 0 40 40"><g transform="translate(-53 -6.667)"><g transform="translate(53.333 6.667)"><rect width="40" height="40" transform="translate(-0.333 0)" fill="none"/><path d="M273.333-298.333a2.675,2.675,0,0,1-2.667,2.667,2.266,2.266,0,0,1-.68-.093l-4.747,4.733a2.355,2.355,0,0,1,.093.693,2.675,2.675,0,0,1-2.667,2.667A2.675,2.675,0,0,1,260-290.333a2.354,2.354,0,0,1,.093-.693l-3.4-3.4a2.355,2.355,0,0,1-.693.093,2.355,2.355,0,0,1-.693-.093l-6.067,6.08a2.266,2.266,0,0,1,.093.68A2.675,2.675,0,0,1,246.667-285,2.674,2.674,0,0,1,244-287.667a2.675,2.675,0,0,1,2.667-2.667,2.266,2.266,0,0,1,.68.093l6.08-6.067a2.356,2.356,0,0,1-.093-.693A2.674,2.674,0,0,1,256-299.667,2.674,2.674,0,0,1,258.667-297a2.356,2.356,0,0,1-.093.693l3.4,3.4a2.354,2.354,0,0,1,.693-.093,2.354,2.354,0,0,1,.693.093l4.733-4.747a2.265,2.265,0,0,1-.093-.68A2.674,2.674,0,0,1,270.667-301a2.675,2.675,0,0,1,2.667,2.667Z" transform="translate(-238.667 313)" fill="#d9d9d9" fill-rule="evenodd"/></g></g></svg>