<svg xmlns="http://www.w3.org/2000/svg" width="20" height="20" viewBox="0 0 20 20"><g transform="translate(-635 -150)"><g transform="translate(631 146)"><path d="M13.238,17.485a1.25,1.25,0,0,1-.887-.362l-5-5A1.25,1.25,0,0,1,9.113,10.36l4.125,4.112L17.35,10.36a1.25,1.25,0,0,1,1.763,1.763l-5,5A1.25,1.25,0,0,1,13.238,17.485Z" transform="translate(0.762 1.515)" fill="#fff"/><path d="M14,19a1.25,1.25,0,0,1-1.25-1.25V5.25a1.25,1.25,0,0,1,2.5,0v12.5A1.25,1.25,0,0,1,14,19Zm8.75,5H5.25a1.25,1.25,0,0,1,0-2.5h17.5a1.25,1.25,0,0,1,0,2.5Z" fill="#fff"/></g></g></svg>