<svg xmlns="http://www.w3.org/2000/svg" xmlns:xlink="http://www.w3.org/1999/xlink" width="729" height="725" viewBox="0 0 729 725">
  <defs>
    <clipPath id="clip-path">
      <rect id="Rectangle_33" data-name="Rectangle 33" width="729" height="725" transform="translate(293 190)" fill="#fff" stroke="#707070" stroke-width="1"/>
    </clipPath>
    <filter id="Rectangle_3" x="532.5" y="-214.5" width="994" height="1159" filterUnits="userSpaceOnUse">
      <feOffset dy="3" input="SourceAlpha"/>
      <feGaussianBlur stdDeviation="49.5" result="blur"/>
      <feFlood flood-color="#acacac" flood-opacity="0.341"/>
      <feComposite operator="in" in2="blur"/>
      <feComposite in="SourceGraphic"/>
    </filter>
    <filter id="Rectangle_32" x="-109.5" y="-119.5" width="1017" height="1004" filterUnits="userSpaceOnUse">
      <feOffset dx="30" dy="20" input="SourceAlpha"/>
      <feGaussianBlur stdDeviation="49.5" result="blur-2"/>
      <feFlood flood-color="#b5b5b5" flood-opacity="0.58"/>
      <feComposite operator="in" in2="blur-2"/>
      <feComposite in="SourceGraphic"/>
    </filter>
    <clipPath id="clip-path-2">
      <rect id="Rectangle_30" data-name="Rectangle 30" width="729" height="725" rx="10" transform="translate(560 327)" fill="#fff" stroke="#707070" stroke-width="1"/>
    </clipPath>
    <linearGradient id="linear-gradient" y1="0.5" x2="1" y2="0.5" gradientUnits="objectBoundingBox">
      <stop offset="0" stop-color="#07bce5"/>
      <stop offset="1" stop-color="#7c78d7"/>
    </linearGradient>
    <linearGradient id="linear-gradient-3" y1="0.5" x2="1.001" y2="0.5" gradientUnits="objectBoundingBox">
      <stop offset="0" stop-color="#7c78d7"/>
      <stop offset="1" stop-color="#07bce5"/>
    </linearGradient>
    <linearGradient id="linear-gradient-6" x1="-1.131" y1="0.5" x2="1.003" y2="0.5" xlink:href="#linear-gradient-3"/>
    <linearGradient id="linear-gradient-7" x1="-2.079" y1="0.5" x2="1.464" y2="0.5" xlink:href="#linear-gradient-3"/>
    <linearGradient id="linear-gradient-9" x1="0" y1="0.5" x2="3.592" y2="0.5" xlink:href="#linear-gradient-3"/>
    <linearGradient id="linear-gradient-10" x1="-0.2" y1="0.5" x2="1" y2="0.5" xlink:href="#linear-gradient-3"/>
    <linearGradient id="linear-gradient-11" x1="-781.345" y1="0.5" x2="1" y2="0.5" xlink:href="#linear-gradient-3"/>
    <linearGradient id="linear-gradient-12" x1="-432.332" y1="0.5" x2="1" y2="0.5" xlink:href="#linear-gradient-3"/>
    <linearGradient id="linear-gradient-14" x1="-0.807" y1="0.5" x2="1.002" y2="0.5" xlink:href="#linear-gradient-3"/>
    <linearGradient id="linear-gradient-15" x1="0" y1="0.5" x2="1.002" y2="0.5" xlink:href="#linear-gradient-3"/>
    <filter id="Path_21" x="710" y="369" width="686.452" height="320" filterUnits="userSpaceOnUse">
      <feOffset dy="3" input="SourceAlpha"/>
      <feGaussianBlur stdDeviation="40" result="blur-3"/>
      <feFlood flood-opacity="0.102"/>
      <feComposite operator="in" in2="blur-3"/>
      <feComposite in="SourceGraphic"/>
    </filter>
    <filter id="Path_8" x="755.391" y="152.757" width="596.452" height="230" filterUnits="userSpaceOnUse">
      <feOffset dy="10" input="SourceAlpha"/>
      <feGaussianBlur stdDeviation="25" result="blur-4"/>
      <feFlood flood-color="#6685da" flood-opacity="0.22"/>
      <feComposite operator="in" in2="blur-4"/>
      <feComposite in="SourceGraphic"/>
    </filter>
  </defs>
  <g id="Group_42" data-name="Group 42" transform="translate(-119 -111)">
    <g id="Mask_Group_6" data-name="Mask Group 6" transform="translate(-174 -79)" clip-path="url(#clip-path)">
      <g id="Group_41" data-name="Group 41">
        <g transform="matrix(1, 0, 0, 1, 293, 190)" filter="url(#Rectangle_3)">
          <rect id="Rectangle_3-2" data-name="Rectangle 3" width="697" height="862" rx="10" transform="translate(681 -69)" fill="#fafafa"/>
        </g>
        <g transform="matrix(1, 0, 0, 1, 293, 190)" filter="url(#Rectangle_32)">
          <rect id="Rectangle_32-2" data-name="Rectangle 32" width="720" height="707" rx="10" transform="translate(9 9)" fill="#f9fdff"/>
        </g>
        <g id="Mask_Group_5" data-name="Mask Group 5" transform="translate(-267 -137)" clip-path="url(#clip-path-2)">
          <g id="Group_36" data-name="Group 36" transform="translate(-89.259 320.185)">
            <rect id="Rectangle_29" data-name="Rectangle 29" width="1655.289" height="759.159" transform="translate(0.001 0.001)" fill="url(#linear-gradient)"/>
            <path id="Path_56" data-name="Path 56" d="M1277.358,381.1l.613,102.754V377.705c-44.7-6.507-97.364-25.918-159.427-62.28C983.99,236.595,855.692,182.254,742.226,154.587,636.058,191.2,565.193,275.657,565.193,375.637c0,235.343-152.422,353.25-429.013,353.25H646.2C646.2,230.272,1277.358,381.1,1277.358,381.1Z" transform="translate(377.319 30.273)" fill="url(#linear-gradient)"/>
            <path id="Path_57" data-name="Path 57" d="M1277.358,381.1l.613,102.754V377.705c-44.7-6.507-97.364-25.918-159.427-62.28C983.99,236.595,855.692,182.254,742.226,154.587,636.058,191.2,565.193,275.657,565.193,375.637c0,235.343-152.422,353.25-429.013,353.25H646.2C646.2,230.272,1277.358,381.1,1277.358,381.1Z" transform="translate(377.319 30.273)" fill="url(#linear-gradient-3)"/>
            <path id="Path_58" data-name="Path 58" d="M-34.536,605.221v130.5S636.169,858.42,636.169,507.33c0-244.6,182.347-321.8,442.965-258.253,143.367-49.442,351.117-11.617,535.744,193.114V64.217H493.86V249.453C493.86,561.888,163.645,606.549-34.536,605.221Z" transform="translate(40.412 -64.217)" fill="url(#linear-gradient)"/>
            <path id="Path_59" data-name="Path 59" d="M-36.512,605.221v130.5s673.1,122.7,673.1-228.388c0-244.6,182.995-321.8,444.541-258.253C1225,199.635,1433.493,237.46,1618.778,442.19V64.217H493.767V249.453C493.767,561.888,162.376,606.549-36.512,605.221Z" transform="translate(36.512 -64.217)" fill="#0378ff"/>
            <path id="Path_60" data-name="Path 60" d="M340,164.544c113.466,27.667,241.763,82.008,376.317,160.838,62.063,36.362,114.729,55.773,159.427,62.28v-30C691.113,152.927,483.363,115.1,340,164.544Z" transform="translate(779.55 20.316)" fill="url(#linear-gradient)"/>
            <path id="Path_61" data-name="Path 61" d="M340,164.544c113.466,27.667,241.763,82.008,376.317,160.838,62.063,36.362,114.729,55.773,159.427,62.28v-30C691.113,152.927,483.363,115.1,340,164.544Z" transform="translate(779.55 20.316)" fill="url(#linear-gradient-6)"/>
            <path id="Path_62" data-name="Path 62" d="M340,164.544c113.466,27.667,241.763,82.008,376.317,160.838,62.063,36.362,114.729,55.773,159.427,62.28v-30C691.113,152.927,483.363,115.1,340,164.544Z" transform="translate(779.55 20.316)" fill="url(#linear-gradient-7)"/>
            <path id="Path_63" data-name="Path 63" d="M493.86,249.453V64.217h-528.4v541C163.645,606.549,493.86,561.888,493.86,249.453Z" transform="translate(40.412 -64.217)" fill="url(#linear-gradient)"/>
            <path id="Path_64" data-name="Path 64" d="M493.86,249.453V64.217h-528.4v541C163.645,606.549,493.86,561.888,493.86,249.453Z" transform="translate(40.412 -64.217)" fill="url(#linear-gradient-9)"/>
            <path id="Path_65" data-name="Path 65" d="M493.86,249.453V64.217h-528.4v541C163.645,606.549,493.86,561.888,493.86,249.453Z" transform="translate(40.412 -64.217)" fill="url(#linear-gradient-10)"/>
            <path id="Path_66" data-name="Path 66" d="M520.169,560.586h1.461l-1.461-245.035Z" transform="translate(1135.121 198.574)" fill="url(#linear-gradient-11)"/>
            <path id="Path_67" data-name="Path 67" d="M520.169,560.586h1.461l-1.461-245.035Z" transform="translate(1135.121 198.574)" fill="url(#linear-gradient-12)"/>
            <path id="Path_68" data-name="Path 68" d="M938.862,276.273S307.7,125.446,307.7,624.061H939.474V379.027Z" transform="translate(715.815 135.099)" fill="url(#linear-gradient)"/>
            <path id="Path_69" data-name="Path 69" d="M938.862,276.273S307.7,125.446,307.7,624.061H939.474V379.027Z" transform="translate(715.815 135.099)" fill="url(#linear-gradient-14)"/>
            <path id="Path_70" data-name="Path 70" d="M938.862,276.273S307.7,125.446,307.7,624.061H939.474V379.027Z" transform="translate(715.815 135.099)" fill="url(#linear-gradient-15)"/>
          </g>
        </g>
        <text id="Hesabın_Yok_mu_Erişim_İste" data-name="Hesabın Yok mu? Erişim İste" transform="translate(1210 829)" fill="#707070" font-size="20" font-family="Helvetica"><tspan x="0" y="0">Hesabın Yok mu? </tspan><tspan y="0" fill="#0378ff" font-family="Helvetica-Bold, Helvetica" font-weight="700">Erişim İste</tspan></text>
        <path id="Path_9" data-name="Path 9" d="M0,0H446.452V80H0Z" transform="translate(1123.391 542)" fill="#eff6f9"/>
        <g transform="matrix(1, 0, 0, 1, 293, 190)" filter="url(#Path_21)">
          <path id="Path_21-2" data-name="Path 21" d="M0,0H446.452V80H0Z" transform="translate(830 486)" fill="#0378ff"/>
        </g>
        <text id="Parola" transform="translate(1155 586)" fill="#707070" font-size="14" font-family="Helvetica" letter-spacing="0.05em"><tspan x="0" y="0">Parola</tspan></text>
        <text id="Şifremi_Unuttum" data-name="Şifremi Unuttum" transform="translate(1438 586)" fill="#707070" font-size="14" font-family="Helvetica" letter-spacing="0.05em" opacity="0.3"><tspan x="0" y="0">Şifremi Unuttum</tspan></text>
        <g transform="matrix(1, 0, 0, 1, 293, 190)" filter="url(#Path_8)">
          <path id="Path_8-2" data-name="Path 8" d="M0,0H446.452V80H0Z" transform="translate(830.39 217.76)" fill="#f9fdff"/>
        </g>
        <text id="EMAIL" transform="translate(1145 433)" fill="#707070" font-size="14" font-family="Helvetica" letter-spacing="0.05em" opacity="0.5"><tspan x="0" y="0">EMAIL</tspan></text>
        <text id="mucahittaskin_gmail.com" data-name="mucahittaskin@gmail.com" transform="translate(1145 464)" fill="#707070" font-size="18" font-family="Helvetica" letter-spacing="0.05em"><tspan x="0" y="0">mucahittaskin@gmail.com</tspan></text>
        <rect id="Rectangle_4" data-name="Rectangle 4" width="6" height="80" transform="translate(1123 408)" fill="#0378ff"/>
        <text id="GİRİŞ_YAP" data-name="GİRİŞ YAP" transform="translate(1293 723)" fill="#fff" font-size="20" font-family="Helvetica-Bold, Helvetica" font-weight="700" letter-spacing="0.05em"><tspan x="0" y="0">GİRİŞ YAP</tspan></text>
      </g>
    </g>
  </g>
</svg>
