<svg xmlns="http://www.w3.org/2000/svg" xmlns:xlink="http://www.w3.org/1999/xlink" width="29.257" height="36.965" viewBox="0 0 29.257 36.965"><defs><linearGradient id="a" x1="0.015" y1="0.574" x2="0.956" y2="0.235" gradientUnits="objectBoundingBox"><stop offset="0.15" stop-color="#b90e0c"/><stop offset="0.26" stop-color="#c40c11"/><stop offset="0.54" stop-color="#db071c"/><stop offset="0.72" stop-color="#e30520"/></linearGradient></defs><g transform="translate(-882.372 -237.518)"><g transform="translate(800.414 221.566)"><ellipse cx="14.544" cy="14.681" rx="14.544" ry="14.681" transform="matrix(1, -0.006, 0.006, 1, 81.957, 23.556)" fill="url(#a)"/><path d="M125.492,168.346c.013,2.1.03,4.191.033,6.286,0,.724-.05,1.46-.818,1.825a2.371,2.371,0,0,1-2.5-.1,2.306,2.306,0,0,1-.652-1.611c-.079-2.665-.06-5.334-.075-8-.009-1.63-.374-2-2-2.007-1.047-.007-1.581-.489-1.419-1.463a1.574,1.574,0,0,1,.777-1.047,12.6,12.6,0,0,0,3.339-1.962,2.524,2.524,0,0,1,2.231-.4c.658.14,1.031.859,1.044,1.978C125.477,164.013,125.48,166.18,125.492,168.346Z" transform="translate(-32.416 -129.245)"/><path d="M255.492,164.346c.013,2.1.03,4.191.033,6.286,0,.724-.05,1.46-.818,1.825a2.371,2.371,0,0,1-2.5-.1,2.306,2.306,0,0,1-.652-1.611c-.079-2.665-.06-5.334-.075-8-.009-1.63-.374-2-2-2.007-1.047-.007-1.581-.489-1.419-1.463a1.574,1.574,0,0,1,.777-1.047,12.6,12.6,0,0,0,3.339-1.962,2.524,2.524,0,0,1,2.231-.4c.658.14,1.031.859,1.044,1.978C255.477,160.013,255.48,162.18,255.492,164.346Z" transform="translate(-149.235 -125.65)"/><path d="M166.891,58.687a14.33,14.33,0,0,0-7.6-2.4l.169,29.263c-.955.15-.95.15-.952-.723q-.031-13.8-.068-27.595v-.834c-1.6-.338-3.776.274-7.466,2.077.128-2.073,2.759-5.486,6.608-6A8.219,8.219,0,0,1,166.891,58.687Z" transform="translate(-62.016 -32.741)"/><path d="M174.357,17.681a1.222,1.222,0,0,1-1.14,1.345,1.3,1.3,0,0,1-1.148-1.287c0-.825.406-1.276,1.154-1.28C173.954,16.458,174.348,16.883,174.357,17.681Z" transform="translate(-80.976 -0.457)"/><path d="M262.131,17.133a1.337,1.337,0,0,1-1.141,1.385,1.478,1.478,0,0,1-1.273-1.359,1.322,1.322,0,0,1,1.153-1.207A1.107,1.107,0,0,1,262.131,17.133Z" transform="translate(-159.737)"/></g></g></svg>