<svg xmlns="http://www.w3.org/2000/svg" width="30.579" height="30.579" viewBox="0 0 30.579 30.579"><g transform="translate(-674 -300)"><g transform="translate(674 300)"><path d="M0,0H30.579V30.579H0Z" fill="none"/><path d="M30.031,16.407l-3.109-3.542.433-4.7-4.6-1.038L20.348,3.08,16.015,4.94,11.683,3.08,9.275,7.132,4.676,8.17l.433,4.7L2,16.407,5.109,19.95l-.433,4.7,4.6,1.038,2.408,4.052,4.332-1.86,4.332,1.86,2.408-4.052,4.6-1.038-.433-4.7ZM17.29,22.778H14.741V20.23H17.29Zm0-5.1H14.741V10.037H17.29Z" transform="translate(-0.726 -1.118)" fill="#d9d9d9"/></g></g></svg>