<svg xmlns="http://www.w3.org/2000/svg" width="28.306" height="29.695" viewBox="0 0 28.306 29.695"><g transform="translate(-424 -785)"><g transform="translate(388.189 772.378)"><path d="M50.712,257.572l-1.257-.663-3.02-1.6q-1.832-.967-3.667-1.938l-3.159-1.667c-.511-.27-1.019-.55-1.537-.811l-.021-.012c.247.428.49.856.737,1.284V240.447c0-.541.009-1.082,0-1.623V238.8q-1.119.642-2.235,1.284l1.257.666,3.02,1.6,3.667,1.938,3.159,1.67c.511.27,1.019.55,1.537.811l.021.012c-.247-.428-.49-.856-.737-1.284v11.71c0,.541-.006,1.082,0,1.623v.021a1.547,1.547,0,0,0,.434,1.052,1.492,1.492,0,0,0,2.1,0,1.541,1.541,0,0,0,.434-1.052V247.14c0-.541.006-1.082,0-1.623V245.5a1.485,1.485,0,0,0-.737-1.284l-1.257-.666-3.02-1.6-3.667-1.938-3.159-1.67c-.511-.27-1.022-.547-1.537-.811l-.021-.012a1.519,1.519,0,0,0-1.5,0,1.5,1.5,0,0,0-.737,1.284v11.722c0,.541-.006,1.082,0,1.623v.021a1.481,1.481,0,0,0,.737,1.284l1.257.663,3.02,1.6q1.832.967,3.667,1.938l3.159,1.667c.511.27,1.022.547,1.537.811l.021.012a1.568,1.568,0,0,0,1.144.149,1.519,1.519,0,0,0,.889-.684,1.5,1.5,0,0,0,.149-1.144A1.483,1.483,0,0,0,50.712,257.572Z" transform="translate(0 -218.022)" fill="#d8d8d8"/><path d="M475.315,251.079l-1.257.663-3.02,1.6q-1.832.967-3.667,1.938l-3.159,1.667c-.511.27-1.028.532-1.536.811l-.021.012q1.119.642,2.235,1.284V247.34c0-.541.009-1.082,0-1.623V245.7c-.247.428-.49.856-.737,1.284l1.257-.666,3.02-1.6,3.667-1.938,3.159-1.67c.511-.27,1.028-.535,1.537-.811l.021-.012q-1.119-.642-2.235-1.284v11.722c0,.541-.006,1.082,0,1.623v.021a1.547,1.547,0,0,0,.434,1.052,1.492,1.492,0,0,0,2.1,0,1.541,1.541,0,0,0,.434-1.052V240.647c0-.541.006-1.082,0-1.623V239a1.5,1.5,0,0,0-.737-1.284,1.519,1.519,0,0,0-1.5,0l-1.257.666-3.02,1.6-3.667,1.938-3.159,1.67c-.511.27-1.031.532-1.537.811l-.021.012a1.478,1.478,0,0,0-.737,1.284v11.71c0,.541-.006,1.082,0,1.623v.021a1.5,1.5,0,0,0,.737,1.284,1.526,1.526,0,0,0,1.5,0l1.257-.663,3.02-1.6q1.832-.967,3.667-1.938l3.159-1.667c.511-.27,1.031-.532,1.537-.811l.021-.012a1.486,1.486,0,1,0-1.5-2.568Z" transform="translate(-413.436 -218.216)" fill="#d8d8d8"/><path d="M62.207,19.5l-1.257.666-3.02,1.6L54.263,23.7,51.1,25.371c-.511.27-1.028.535-1.537.811l-.021.012h1.5l-1.257-.666-3.02-1.6L43.1,21.995l-3.159-1.67c-.511-.27-1.019-.55-1.537-.811l-.021-.012v2.565l1.257-.663,3.02-1.6,3.667-1.938q1.578-.834,3.159-1.67c.511-.27,1.028-.535,1.537-.811l.021-.012h-1.5l1.257.663,3.02,1.6,3.667,1.938q1.578.834,3.159,1.67c.511.27,1.022.547,1.537.811l.021.012a1.567,1.567,0,0,0,1.144.149,1.519,1.519,0,0,0,.889-.684A1.487,1.487,0,0,0,63.7,19.5l-1.275-.672q-1.516-.8-3.028-1.6l-3.682-1.944L52.572,13.62c-.505-.267-1.008-.544-1.516-.8a1.574,1.574,0,0,0-.963-.184,1.653,1.653,0,0,0-.571.187c-.056.03-.11.059-.166.086l-.785.413q-1.431.758-2.865,1.513l-3.65,1.929q-1.649.869-3.3,1.742-.9.477-1.8.951l-.083.045a1.5,1.5,0,0,0,0,2.565l1.275.675,3.028,1.6,3.682,1.947,3.147,1.664c.505.267,1.008.544,1.516.8a1.575,1.575,0,0,0,.963.184,1.653,1.653,0,0,0,.571-.187c.056-.03.11-.059.166-.086l.785-.413,2.865-1.516,3.65-1.929q1.649-.869,3.3-1.742l1.8-.954.083-.045a1.486,1.486,0,0,0-1.5-2.568Z" transform="translate(-0.329)" fill="#d8d8d8"/><path d="M251.35,134.723l1.257-.666,3.02-1.6,3.667-1.938,3.159-1.67c.511-.27,1.031-.532,1.537-.811l.021-.012a1.485,1.485,0,1,0-1.5-2.565l-1.257.666-3.02,1.6-3.667,1.938-3.159,1.67c-.511.27-1.031.532-1.537.811l-.021.012a1.485,1.485,0,1,0,1.5,2.565Z" transform="translate(-206.968 -109.304)" fill="#d8d8d8"/></g></g></svg>