<svg xmlns="http://www.w3.org/2000/svg" width="22.525" height="23.631" viewBox="0 0 22.525 23.631"><g transform="translate(-9.89 -8.699)"><g transform="translate(-25.921 -3.923)"><path d="M47.669,253.437l-1-.527-2.4-1.27q-1.458-.77-2.919-1.542l-2.514-1.327c-.407-.215-.811-.438-1.223-.646l-.017-.009c.2.341.39.681.587,1.022v-9.328c0-.43.007-.861,0-1.291V238.5L36.4,239.523l1,.53,2.4,1.27,2.919,1.542,2.514,1.329c.407.215.811.438,1.223.646l.017.009c-.2-.341-.39-.681-.587-1.022v9.318c0,.43,0,.861,0,1.291v.017a1.231,1.231,0,0,0,.345.837,1.188,1.188,0,0,0,1.674,0,1.227,1.227,0,0,0,.345-.837v-9.318c0-.43,0-.861,0-1.291v-.017a1.182,1.182,0,0,0-.587-1.022l-1-.53-2.4-1.27-2.919-1.542-2.514-1.329c-.407-.215-.814-.435-1.223-.646l-.017-.009a1.208,1.208,0,0,0-1.194,0,1.192,1.192,0,0,0-.587,1.022v9.328c0,.43,0,.861,0,1.291v.017a1.179,1.179,0,0,0,.587,1.022l1,.527,2.4,1.27q1.458.77,2.918,1.542l2.514,1.327c.407.215.814.435,1.223.646l.017.009a1.247,1.247,0,0,0,.911.118,1.209,1.209,0,0,0,.707-.544,1.192,1.192,0,0,0,.118-.911A1.18,1.18,0,0,0,47.669,253.437Z" transform="translate(0 -219.386)" fill="#d8d8d8"/><path d="M472.577,248.311l-1,.527-2.4,1.27q-1.458.77-2.919,1.542l-2.514,1.327c-.407.215-.818.423-1.223.646l-.017.009,1.779,1.022v-9.318c0-.43.007-.861,0-1.291v-.017c-.2.341-.39.681-.587,1.022l1-.53,2.4-1.27,2.919-1.542,2.514-1.329c.407-.215.818-.426,1.223-.646l.017-.009-1.779-1.022v9.328c0,.43,0,.861,0,1.291v.017a1.231,1.231,0,0,0,.345.837,1.188,1.188,0,0,0,1.674,0,1.227,1.227,0,0,0,.345-.837v-9.328c0-.43,0-.861,0-1.291V238.7a1.2,1.2,0,0,0-.587-1.022,1.208,1.208,0,0,0-1.194,0l-1,.53-2.4,1.27-2.919,1.542-2.514,1.329c-.407.215-.821.423-1.223.646l-.017.009a1.176,1.176,0,0,0-.587,1.022v9.318c0,.43,0,.861,0,1.291v.017a1.2,1.2,0,0,0,.587,1.022,1.214,1.214,0,0,0,1.194,0l1-.527,2.4-1.27q1.458-.77,2.919-1.542l2.514-1.327c.407-.215.821-.423,1.223-.646l.017-.009a1.183,1.183,0,0,0-1.192-2.043Z" transform="translate(-416.022 -219.581)" fill="#d8d8d8"/><path d="M56.886,18.1l-1,.53-2.4,1.27-2.919,1.542L48.05,22.767c-.407.215-.818.426-1.223.646l-.017.009H48l-1-.53-2.4-1.27-2.919-1.542-2.514-1.329c-.407-.215-.811-.438-1.223-.646L37.93,18.1v2.041l1-.527,2.4-1.27L44.252,16.8q1.256-.663,2.514-1.329c.407-.215.818-.426,1.223-.646L48,14.813H46.811l1,.527,2.4,1.27,2.919,1.542q1.256.663,2.514,1.329c.407.215.814.435,1.223.646l.017.009a1.247,1.247,0,0,0,.911.118,1.209,1.209,0,0,0,.707-.544,1.184,1.184,0,0,0-.426-1.618l-1.015-.535q-1.206-.635-2.41-1.272l-2.93-1.547-2.5-1.324c-.4-.213-.8-.433-1.206-.636a1.253,1.253,0,0,0-.766-.147,1.316,1.316,0,0,0-.454.149c-.045.024-.088.047-.132.069l-.624.329q-1.139.6-2.28,1.2l-2.9,1.535q-1.313.692-2.623,1.386-.717.38-1.433.757l-.066.035a1.19,1.19,0,0,0,0,2.041l1.015.537,2.41,1.275,2.93,1.549,2.5,1.324c.4.213.8.433,1.206.639a1.253,1.253,0,0,0,.766.147,1.316,1.316,0,0,0,.454-.149c.045-.024.088-.047.132-.069l.624-.329,2.28-1.206,2.9-1.535q1.313-.692,2.623-1.386l1.433-.759.066-.035A1.183,1.183,0,0,0,56.886,18.1Z" transform="translate(-0.331)" fill="#d8d8d8"/><path d="M250.894,132.793l1-.53,2.4-1.27,2.918-1.542,2.514-1.329c.407-.215.821-.423,1.223-.646l.017-.009a1.182,1.182,0,1,0-1.192-2.041l-1,.53-2.4,1.27-2.919,1.542-2.514,1.329c-.407.215-.821.423-1.223.646l-.017.009a1.182,1.182,0,1,0,1.192,2.041Z" transform="translate(-208.262 -109.988)" fill="#d8d8d8"/></g></g></svg>