<svg xmlns="http://www.w3.org/2000/svg" width="28" height="24" viewBox="0 0 28 24"><g transform="translate(-6.667 -8)"><path d="M1100-344a12,12,0,0,0-12,12h-4l5.187,5.187.093.187,5.387-5.373h-4a9.327,9.327,0,0,1,9.333-9.333,9.327,9.327,0,0,1,9.333,9.333,9.327,9.327,0,0,1-9.333,9.333,9.257,9.257,0,0,1-6.587-2.747l-1.893,1.893A11.939,11.939,0,0,0,1100-320a12,12,0,0,0,12-12,12,12,0,0,0-12-12Zm-1.333,6.667v6.667l5.707,3.387.96-1.613-4.667-2.773v-5.667Z" transform="translate(-1077.333 352)" fill="#d9d9d9" fill-rule="evenodd"/></g></svg>