<svg xmlns="http://www.w3.org/2000/svg" width="20" height="20" viewBox="0 0 20 20"><g transform="translate(-931 -778)"><path d="M12,22A10,10,0,1,0,2,12,10,10,0,0,0,12,22Zm-1.086-8.724a.924.924,0,0,0,.958,1.022h.47a.525.525,0,0,0,.524-.492,2.25,2.25,0,0,1,.676-1.379l.63-.62A5.36,5.36,0,0,0,15.2,10.46a2.955,2.955,0,0,0,.3-1.3,2.981,2.981,0,0,0-.909-2.33A3.651,3.651,0,0,0,12.035,6a3.667,3.667,0,0,0-2.58.871,2.84,2.84,0,0,0-.793,1.28.934.934,0,0,0,.99,1.131,1.948,1.948,0,0,0,1.3-.84c.052-.057.1-.114.154-.168a1.214,1.214,0,0,1,.925-.37q1.212,0,1.212,1.362a1.729,1.729,0,0,1-.233.863,5.16,5.16,0,0,1-.94,1.056A3.68,3.68,0,0,0,11.11,12.5a3.555,3.555,0,0,0-.2.776Zm.057,2.611a1.3,1.3,0,0,0-.008,1.767A1.25,1.25,0,0,0,11.88,18a1.222,1.222,0,0,0,.909-.347,1.278,1.278,0,0,0-.008-1.766,1.209,1.209,0,0,0-.9-.355,1.238,1.238,0,0,0-.91.355Z" transform="translate(929 776)" fill="#d8d8d8" fill-rule="evenodd"/></g></svg>