<svg xmlns="http://www.w3.org/2000/svg" width="22" height="22" viewBox="0 0 22 22"><g transform="translate(-1506 -149)"><path d="M1,2A1,1,0,0,1,2,1h8.5a1,1,0,0,1,1,1v8.5a1,1,0,0,1-1,1H2a1,1,0,0,1-1-1ZM3.5,4.5a1,1,0,0,1,1-1H8a1,1,0,0,1,1,1V8A1,1,0,0,1,8,9H4.5a1,1,0,0,1-1-1ZM1,13.5a1,1,0,0,1,1-1h8.5a1,1,0,0,1,1,1V22a1,1,0,0,1-1,1H2a1,1,0,0,1-1-1ZM3.5,16a1,1,0,0,1,1-1H8a1,1,0,0,1,1,1v3.5a1,1,0,0,1-1,1H4.5a1,1,0,0,1-1-1Zm9-14a1,1,0,0,1,1-1H22a1,1,0,0,1,1,1v8.5a1,1,0,0,1-1,1H13.5a1,1,0,0,1-1-1ZM15,4.5a1,1,0,0,1,1-1h3.5a1,1,0,0,1,1,1V8a1,1,0,0,1-1,1H16a1,1,0,0,1-1-1Zm-2,8h9v2H13ZM19,18H16V16h3Zm-3,4H13V20h3Zm6,0H19V20h3Z" transform="translate(1505 148)" fill-rule="evenodd"/></g></svg>