<svg xmlns="http://www.w3.org/2000/svg" width="23.32" height="23.32" viewBox="0 0 23.32 23.32"><g transform="translate(-9.335 -8)"><path d="M62.667-289.333H61.613l-.373-.36a8.628,8.628,0,0,0,2.093-5.64A8.666,8.666,0,0,0,54.667-304,8.666,8.666,0,0,0,46-295.333a8.666,8.666,0,0,0,8.667,8.667,8.628,8.628,0,0,0,5.64-2.093l.36.373v1.053l6.667,6.653,1.987-1.987-6.653-6.667Zm-8,0a5.992,5.992,0,0,1-6-6,5.992,5.992,0,0,1,6-6,5.992,5.992,0,0,1,6,6,5.992,5.992,0,0,1-6,6Z" transform="translate(-36.665 312)" fill="#d8d8d8" fill-rule="evenodd"/></g></svg>