<svg xmlns="http://www.w3.org/2000/svg" width="33.477" height="11.36" viewBox="0 0 33.477 11.36"><g transform="translate(-1082 -250)"><g transform="translate(1080.57 101.015)"><path d="M13.4,202.877H9.607a1.558,1.558,0,0,0,1.5,1.249,1.5,1.5,0,0,0,1.114-.494l.917.02a2.319,2.319,0,0,1-2.067,1.26A2.391,2.391,0,0,1,8.745,202.5a2.34,2.34,0,1,1,4.679-.047,3.885,3.885,0,0,1-.028.426Zm-2.319-2a1.485,1.485,0,0,0-1.478,1.34h2.956a1.479,1.479,0,0,0-1.475-1.34Zm6.114,3.916v-2.486c0-.774-.233-1.43-1.142-1.43-.842,0-1.206.652-1.206,1.421v2.494H13.99v-4.575h.8v.486h.016a1.6,1.6,0,0,1,1.34-.613,1.851,1.851,0,0,1,1.62.818,2.141,2.141,0,0,1,.288,1.174v2.711Zm5.426,0v-.652H22.6a1.931,1.931,0,0,1-1.621.767,2.32,2.32,0,0,1-2.379-2.387,2.347,2.347,0,0,1,2.379-2.431,1.991,1.991,0,0,1,1.554.684h.016V198.68h.858v6.114Zm-1.586-3.916a1.584,1.584,0,0,0-1.571,1.636,1.577,1.577,0,1,0,3.154,0A1.562,1.562,0,0,0,21.032,200.878Zm4.862,5.446h-.886l.668-1.621-1.826-4.488h.924l1.346,3.553,1.381-3.551h.924L25.9,206.323Zm4.978-1.411a2.459,2.459,0,0,1-2.468-2.438,2.47,2.47,0,0,1,4.937.014,2.451,2.451,0,0,1-2.468,2.423Zm0-4.031a1.625,1.625,0,1,0,1.613,1.612,1.625,1.625,0,0,0-1.613-1.612Zm3.169,3.916V198.68h.865v6.114Zm-31.765-.905a1.272,1.272,0,0,0,.138.356,1.112,1.112,0,0,0,.209.245,1.512,1.512,0,0,0,1.024.36,2.3,2.3,0,0,0,1.126-.289v-.823a2.015,2.015,0,0,1-1.015.316c-.435,0-.66-.265-.66-.791v-2.239H4.539v-.794H3.1v-1.47h-.85v1.466H1.43v.794h.791v2.031A3.907,3.907,0,0,0,2.276,203.893Zm5.2-2.909a1.355,1.355,0,0,1,.869.439l.467-.774a1.836,1.836,0,0,0-1.106-.506h-.06a1.278,1.278,0,0,0-1.241.68l-.016.028v-.616H5.5v4.536H6.39V202.4a1.6,1.6,0,0,1,.319-.992A.951.951,0,0,1,7.473,200.984Z" transform="translate(0 -45.978)" fill="#231f20"/><path d="M325.873,153.2a.079.079,0,0,1-.088-.064l-.229-1.438a1.475,1.475,0,0,1,.245-1.182,1.581,1.581,0,0,1,1.059-.58l5.975-.95a.075.075,0,0,1,.087.063l.455,2.885a.075.075,0,0,1-.064.087Z" transform="translate(-299.858 0)" fill="#ff671b"/><path d="M336.08,164.272a.457.457,0,0,1-.379.34.537.537,0,0,1-.17-1.058.456.456,0,0,1,.466.206l.289-.048a.752.752,0,0,0-.794-.395.775.775,0,1,0,.874.905l-.285.052Zm1.114-1.233a.778.778,0,0,0-.66.886.8.8,0,1,0,.66-.886Zm.209,1.292a.535.535,0,1,1,.35-.22A.539.539,0,0,1,337.4,164.331Zm3.249-.328-.142-.877a.561.561,0,0,0-.692-.518.514.514,0,0,0-.438.32l-.008.016-.008-.011a.519.519,0,0,0-.49-.171.491.491,0,0,0-.384.265l0,0-.016,0-.028-.158-.237.039.237,1.455.261-.043-.131-.815c-.047-.3.048-.466.3-.506a.321.321,0,0,1,.3.1.524.524,0,0,1,.111.3l.134.81.261-.043-.135-.81c-.035-.209-.031-.455.285-.506.233-.04.383.1.431.391l.135.8.257-.048Zm-5.834.858a.209.209,0,1,1-.209-.209.2.2,0,0,1,.214.209Z" transform="translate(-308.065 -12.593)" fill="#fff"/></g></g></svg>