<svg xmlns="http://www.w3.org/2000/svg" width="18.909" height="26" viewBox="0 0 18.909 26"><g transform="translate(-941.091 -146.5)"><path d="M17.455,7.909v3.545l4.727-4.727L17.455,2V5.545A9.438,9.438,0,0,0,9.465,20.035l1.725-1.725A7.006,7.006,0,0,1,10.364,15,7.089,7.089,0,0,1,17.455,7.909Zm7.989,2.056-1.725,1.725A7.006,7.006,0,0,1,24.545,15a7.089,7.089,0,0,1-7.091,7.091V18.545l-4.727,4.727L17.455,28V24.455A9.438,9.438,0,0,0,25.444,9.965Z" transform="translate(933.091 144.5)" fill="#fff"/></g></svg>